<svg width="150" height="26" viewBox="0 0 150 26" fill="none" xmlns="http://www.w3.org/2000/svg">
<path d="M37.2935 25.9606V14.3217H48.8199V10.4552H37.2935V3.90592H50.3934V0.0394592H33.0842V25.9606H37.2935Z" fill="#030049"/>
<path d="M66.1291 25.9606V3.94538H73.1708V0.0394592H54.8781V3.94538H61.8804V25.9606H66.1291Z" fill="#030049"/>
<path d="M94.0992 25.9606H77.8128V0.0394592H93.9025V3.82702H82.0221V10.1002H92.3682V13.8877H82.0221V22.173H94.0992V25.9606Z" fill="#030049"/>
<path d="M117.073 25.9605L112.234 14.8741C115.46 13.8877 117.703 11.5205 117.703 7.69348V7.61457C117.703 5.52352 116.995 3.70865 115.696 2.40668C114.162 0.907435 111.802 0 108.773 0H98.0724V25.9605H102.282V15.742H108.379L112.903 26H117.073V25.9605ZM102.282 11.9939V3.90592H108.419C111.526 3.90592 113.375 5.32625 113.375 7.89074V7.96965C113.375 10.4158 111.448 11.9939 108.419 11.9939H102.282Z" fill="#030049"/>
<path d="M5.94025 18.7405H21.4005V25.9606H25.4524V18.7405H28.993V15.2686H25.4524V0.0394592H21.7546L5.94025 18.7405ZM21.4005 15.2291H13.4934L21.4005 5.68134V15.2291Z" fill="#030049"/>
<path d="M126.987 18.7405H142.408V25.9606H146.46V18.7405H150V15.2686H146.46V0.0394592H142.683L126.987 18.7405ZM142.408 15.2291H134.54L142.408 5.72079V15.2291Z" fill="#6E00FF"/>
<path d="M0 25.9605H4.64201L7.47443 22.5675L8.26121 21.6206H3.65854L0 25.9605Z" fill="#6E00FF"/>
</svg>
